PathFileType  4	(X/Y/Z) C:\Users\antoi\Documents\MyRepositories\mobilecap\ResultsAnalysis
DataRate	CameraRate	NumFrames	NumMarkers	Units	OrigDataRate	OrigDataStartFrame	OrigNumFrames
100.0	100.0	4	51	mm	100.0	201	801
Frame#	Time	r_knee			r_shank_antsup			r_ankle			r_calc			r_5meta			r_toe			L_knee			L_shank_antsup			L_ankle			L_calc			L_5meta			L_toe			r_sh2			r_sh3			r_sh4			L_sh2			L_sh3			r_thigh1			r_thigh2			r_thigh3			r_thigh4			r_thigh5			L_thigh1			L_thigh2			L_thigh3			L_thigh4			r.ASIS			r.PSIS			L.ASIS			L.PSIS			C7			R_Shoulder			L_Shoulder			R_Sternum			L_Sternum			R_humerus			R_elbow_med			R_elbow_lat			R_forearm			R_wrist_radius			R_wrist_ulna			L_humerus			L_elbow_med			L_elbow_lat			L_forearm			L_wrist_radius			L_wrist_ulna			R_HJC			L_HJC			R_HJC_reg			L_HJC_reg			
		X1	Y1	Z1	X2	Y2	Z2	X3	Y3	Z3	X4	Y4	Z4	X5	Y5	Z5	X6	Y6	Z6	X7	Y7	Z7	X8	Y8	Z8	X9	Y9	Z9	X10	Y10	Z10	X11	Y11	Z11	X12	Y12	Z12	X13	Y13	Z13	X14	Y14	Z14	X15	Y15	Z15	X16	Y16	Z16	X17	Y17	Z17	X18	Y18	Z18	X19	Y19	Z19	X20	Y20	Z20	X21	Y21	Z21	X22	Y22	Z22	X23	Y23	Z23	X24	Y24	Z24	X25	Y25	Z25	X26	Y26	Z26	X27	Y27	Z27	X28	Y28	Z28	X29	Y29	Z29	X30	Y30	Z30	X31	Y31	Z31	X32	Y32	Z32	X33	Y33	Z33	X34	Y34	Z34	X35	Y35	Z35	X36	Y36	Z36	X37	Y37	Z37	X38	Y38	Z38	X39	Y39	Z39	X40	Y40	Z40	X41	Y41	Z41	X42	Y42	Z42	X43	Y43	Z43	X44	Y44	Z44	X45	Y45	Z45	X46	Y46	Z46	X47	Y47	Z47	X48	Y48	Z48	X49	Y49	Z49	X50	Y50	Z50	X51	Y51	Z51	

201	2.00000000	-201.65388	606.73018	-343.18320	-183.32284	456.29312	-335.58519	-293.21861	105.08086	-304.73444	-351.90781	72.60408	-365.17643	-159.29865	44.48574	-269.87584	-120.81770	72.22460	-320.58938	-225.16049	606.61354	-836.73120	-189.62386	406.65873	-845.00663	-303.10634	116.85893	-879.62916	-358.33485	73.66401	-818.71644	-165.03576	37.28278	-927.18884	-121.57607	67.04926	-868.68440	-203.38227	344.28247	-329.46491	-247.06332	468.11958	-297.65534	-268.49663	358.67695	-282.05981	-260.16937	430.20562	-892.40444	-284.16873	312.98495	-889.90884	-274.63238	892.66756	-351.25184	-220.82260	795.26163	-341.93750	-266.81557	745.21256	-329.27147	-371.99286	839.76372	-373.41113	-317.10881	735.64785	-352.90021	-261.55639	900.51581	-795.28820	-215.34003	775.47625	-813.61666	-366.84074	868.45452	-806.45066	-316.62512	741.87350	-834.80387	-265.98835	1101.91924	-444.63408	-422.10282	1196.20158	-532.64154	-273.42298	1088.04361	-712.28287	-421.76088	1195.54630	-625.15242	-150.32467	1592.22403	-597.09858	-68.26547	1536.42271	-430.99420	-90.16405	1541.10624	-766.36944	-32.01135	1478.99648	-574.53912	-33.40560	1475.98211	-619.62781	-1.29242	1295.89653	-363.17804	-54.64944	1143.99256	-363.27761	-6.04625	1182.39329	-298.00974	161.96138	1180.72819	-433.32927	229.74531	1179.98966	-491.58199	232.80756	1145.22060	-479.18994	-3.72229	1280.12743	-818.71052	-72.57757	1162.69305	-822.04382	-8.22302	1184.65470	-873.05932	157.15185	1175.30755	-747.27427	209.13705	1177.76511	-694.13658	213.98503	1149.37294	-713.11555	-373.63231	1042.09322	-475.10711	-381.86851	1038.24150	-672.37425	-363.36151	1045.43603	-482.67446	-362.70783	1044.18366	-659.62204	
202	2.01000000	-202.17285	606.56975	-342.41822	-183.41801	456.25811	-334.92464	-293.29352	105.12657	-304.73754	-351.99723	72.56352	-365.19832	-159.32043	44.60650	-269.79836	-120.89429	72.34084	-320.48011	-225.66444	606.33980	-837.28083	-189.58278	406.63861	-845.76236	-303.26814	116.78623	-879.72024	-358.40043	73.62612	-818.67012	-165.09568	37.23001	-927.20827	-121.59460	67.08666	-868.75009	-203.62611	344.24239	-328.75951	-247.39960	468.11822	-297.25682	-268.68769	359.02287	-281.64403	-260.28174	430.11530	-892.72296	-284.27137	312.85278	-890.05702	-280.34527	891.35812	-349.91373	-224.67320	794.72793	-341.36960	-269.66467	743.57181	-329.06860	-376.64691	836.31978	-373.13299	-319.81027	733.12816	-352.72990	-267.24714	899.49739	-796.28760	-218.64476	775.22023	-814.82965	-371.99441	864.99370	-806.09564	-319.46214	739.52423	-834.86530	-272.43117	1095.69123	-443.50417	-426.29397	1192.96717	-532.47419	-279.92732	1081.01745	-711.50903	-425.87148	1192.12367	-624.97002	-145.06284	1581.53263	-597.10058	-63.62962	1524.05177	-431.26509	-85.50613	1529.08725	-766.16518	-28.79651	1466.19925	-574.89516	-30.45707	1463.16610	-619.53257	6.20889	1285.51818	-364.10282	-44.40119	1132.52187	-364.40926	3.37773	1171.70543	-298.94360	172.00195	1172.86740	-433.70202	239.75799	1172.96815	-491.90696	243.26507	1138.30263	-479.40749	3.81105	1270.53210	-817.97165	-63.04053	1151.86058	-821.69488	0.93985	1174.72614	-872.48824	166.75032	1167.58887	-747.06875	218.89878	1170.84602	-694.13177	224.02267	1142.50290	-713.13952	-381.38752	1038.14727	-474.20918	-389.40473	1033.73976	-671.47280	-371.01521	1040.87116	-481.59243	-370.20542	1039.25550	-658.80111	
203	2.02000000	-202.57484	606.26582	-341.77916	-183.32890	456.07843	-334.28120	-293.36526	105.07846	-304.70527	-352.07152	72.44990	-365.19652	-159.38269	44.52689	-269.80284	-120.97549	72.36480	-320.34030	-225.95581	605.95338	-837.78657	-189.29413	406.51460	-846.67745	-303.33709	116.65562	-879.76979	-358.42380	73.55594	-818.64502	-165.13516	37.14543	-927.23521	-121.59166	67.12758	-868.83518	-203.65868	344.24387	-328.26267	-247.66525	468.03219	-296.79908	-269.28701	359.70430	-281.26823	-260.20928	429.95286	-893.11747	-284.25015	312.63555	-890.26630	-285.70797	889.47395	-348.98828	-227.83192	793.01878	-340.67267	-272.22657	741.43821	-329.13143	-381.12114	832.60911	-372.84225	-322.38655	730.39809	-352.52423	-272.87963	897.95607	-797.32341	-221.83652	774.65627	-816.13183	-376.84262	861.14405	-805.74514	-322.20084	736.69116	-834.48161	-278.95557	1089.33559	-442.32963	-430.49972	1189.17707	-532.42025	-286.37654	1073.59706	-711.14084	-429.87751	1188.27545	-624.92055	-139.97804	1570.27101	-597.12387	-59.18801	1511.09353	-431.55360	-81.14995	1516.53512	-765.92206	-25.99996	1452.66734	-574.92580	-27.81102	1449.73266	-619.40694	13.58611	1274.79422	-364.95464	-34.18088	1120.81756	-365.27501	12.81372	1160.59267	-299.85034	181.76707	1164.57745	-434.20598	249.66841	1165.54637	-492.21727	253.65442	1130.96173	-479.75711	11.14375	1260.53580	-817.22789	-53.48905	1140.48510	-821.04566	10.02050	1164.44155	-871.92955	176.21518	1159.57733	-746.84699	228.50591	1163.51451	-693.99890	233.91582	1135.26676	-713.05796	-389.03788	1033.88271	-473.44121	-396.80438	1028.84677	-670.70041	-378.70018	1035.55670	-480.73343	-377.50356	1033.82370	-658.50783	
204	2.03000000	-202.87618	605.87125	-341.05170	-183.05362	455.79641	-333.67492	-293.41982	104.90147	-304.65360	-352.13265	72.28549	-365.13644	-159.45279	44.25392	-269.86528	-121.03491	72.33129	-320.22673	-225.98780	605.48875	-838.29864	-188.71286	406.18752	-847.43766	-303.31153	116.53853	-879.78465	-358.42138	73.50114	-818.64516	-165.14078	37.08194	-927.25601	-121.60530	67.11681	-868.84473	-203.52301	344.14332	-327.94926	-247.68884	467.84078	-296.49764	-269.88634	359.83769	-280.92259	-259.79623	429.72563	-893.70677	-284.05635	312.42504	-890.55563	-290.83344	886.93624	-348.87992	-230.37717	790.49247	-339.72898	-274.68557	739.23316	-329.03151	-385.27758	828.73269	-372.46623	-324.64769	727.44216	-352.38972	-278.28181	896.04481	-798.42106	-224.77687	773.76774	-817.19206	-381.41374	857.17156	-805.67523	-324.58753	733.74207	-834.36555	-285.49357	1082.36147	-441.64517	-434.71624	1184.94359	-532.42510	-292.67452	1066.13057	-711.15982	-433.95261	1183.99512	-624.80983	-135.13867	1558.47716	-597.05086	-54.94497	1497.59372	-431.89019	-77.00467	1503.54132	-765.63166	-23.81239	1438.22605	-574.27877	-25.38212	1435.69781	-619.15460	20.85478	1263.62952	-365.72861	-23.99392	1108.63700	-366.08553	22.28053	1149.21081	-300.75706	191.34274	1155.86718	-434.64124	259.46632	1157.78054	-492.44183	263.96477	1123.25741	-480.15508	18.30863	1250.09089	-816.53235	-44.02249	1128.67979	-820.27656	19.04450	1153.82478	-871.36480	185.53790	1151.26822	-746.57187	237.94287	1155.79550	-693.75043	243.73039	1127.87489	-713.21387	-396.54633	1029.00571	-473.13195	-404.09568	1023.79642	-670.39559	-386.26254	1030.05793	-480.31117	-384.78957	1028.22791	-658.56040	
